<?xml version="1.0" encoding="utf-8"?>
<!-- Generator: Adobe Illustrator 24.1.0, SVG Export Plug-In . SVG Version: 6.00 Build 0)  -->
<svg version="1.1" id="Capa_1" xmlns="http://www.w3.org/2000/svg" xmlns:xlink="http://www.w3.org/1999/xlink" x="0px" y="0px"
	 viewBox="0 0 711 740" style="enable-background:new 0 0 711 740;" xml:space="preserve">
<g>
</g>
<g>
	<g>
		<g>
			<path d="M355.5,109.99C212.13,109.99,95.49,226.63,95.49,370c0,143.37,116.64,260.01,260.01,260.01
				c143.37,0,260.01-116.64,260.01-260.01C615.51,226.63,498.87,109.99,355.5,109.99z M518.08,252.22h-37.64l-70.02,188.33v131.97
				h-41.34v-45.96h-27.15l0,45.96h-41.35V434.77l-69.3-182.55h-38.36v-38.78h107.5v-45.96h41.5v84.77l-41.35-0.04h-21.13
				l78.95,208.15l76.83-208.15h-36.16l-30-0.18v-84.55h41.62v45.96h107.39V252.22z"/>
			<path d="M355.5,82.12C196.51,82.12,67.62,211.01,67.62,370c0,158.99,128.89,287.88,287.88,287.88S643.38,528.99,643.38,370
				C643.38,211.01,514.49,82.12,355.5,82.12z M355.5,637.09C208.23,637.09,88.41,517.27,88.41,370S208.23,102.91,355.5,102.91
				S622.59,222.73,622.59,370S502.77,637.09,355.5,637.09z"/>
		</g>
	</g>
</g>
</svg>
